#!OML:ASF F:\VICON\USERDATA\INSTALL\rory7\rory7.ASF
:FULLY-SPECIFIED
:DEGREES
602
root 0.425222 18.8259 2.53854 -4.50931 -5.31766 1.38805
lowerback 4.86417 1.58613 -1.65207
upperback 0.264886 1.98066 -1.6033
thorax -2.45283 0.996945 -0.858767
lowerneck -5.99225 -4.42561 -6.89605
upperneck 0.113376 -5.64315 9.26837
head 1.63136 -2.68079 4.10242
rclavicle -1.40516e-014 1.07344e-014
rhumerus 32.3054 9.95005 -55.5972
rradius 126.571
rwrist -2.80224
rhand -34.431 6.4193
rfingers 7.12502
rthumb -7.59557 -23.4243
lclavicle -1.40516e-014 1.07344e-014
lhumerus -34.0012 13.1845 71.074
lradius 22.3896
lwrist -9.98641
lhand -26.3562 26.1499
lfingers 7.12502
lthumb 0.201695 56.1295
rfemur 8.69357 19.6426 17.8373
rtibia 8.00682
rfoot -11.3571 -22.9178
rtoes -6.11362
lfemur 7.32916 -8.7755 -19.3883
ltibia 9.29936
lfoot -11.1956 17.9301
ltoes -4.8237
603
root 0.427475 18.8256 2.53814 -4.52048 -5.40046 1.36748
lowerback 4.85617 1.59714 -1.62557
upperback 0.28902 1.99783 -1.59226
thorax -2.42295 1.00515 -0.862663
lowerneck -5.96475 -4.40502 -6.7391
upperneck 0.116625 -5.6228 9.09269
head 1.61183 -2.67359 4.01004
rclavicle -3.17807e-014 3.1408e-014
rhumerus 32.1259 10.1438 -55.5749
rradius 126.628
rwrist -3.02046
rhand -34.5051 6.15095
rfingers 7.12502
rthumb -7.66707 -23.6901
lclavicle -3.17807e-014 3.1408e-014
lhumerus -33.975 13.2301 71.0545
lradius 22.4455
lwrist -10.2707
lhand -26.6977 26.1382
lfingers 7.12502
lthumb -0.128151 56.1179
rfemur 8.72168 19.7256 17.8525
rtibia 7.93987
rfoot -11.247 -22.9279
rtoes -6.30869
lfemur 7.32713 -8.6935 -19.3742
ltibia 9.35431
lfoot -11.2462 17.9015
ltoes -4.68945
604
root 0.430339 18.8251 2.53772 -4.49129 -5.45751 1.3913
lowerback 4.8503 1.59545 -1.62896
upperback 0.25799 1.99452 -1.60617
thorax -2.45123 1.0036 -0.875305
lowerneck -5.88176 -4.37809 -6.68965
upperneck 0.138315 -5.59457 9.05352
head 1.59778 -2.66177 3.98897
rclavicle 2.69353e-014 -2.46493e-014
rhumerus 31.8352 10.4081 -55.5635
rradius 126.694
rwrist -3.10888
rhand -34.4774 5.46444
rfingers 7.12502
rthumb -7.64039 -24.3776
lclavicle 2.69353e-014 -2.46493e-014
lhumerus -34.0607 13.1006 71.119
lradius 22.6217
lwrist -10.0829
lhand -26.4191 26.0156
lfingers 7.12502
lthumb 0.140972 55.9953
rfemur 8.69812 19.7859 17.7975
rtibia 7.9079
rfoot -11.2182 -22.9175
rtoes -6.42338
lfemur 7.30139 -8.63261 -19.4049
ltibia 9.37378
lfoot -11.3181 17.8785
ltoes -4.36736
605
root 0.432756 18.8249 2.53742 -4.45196 -5.47101 1.42556
lowerback 4.82026 1.58626 -1.64697
upperback 0.243115 1.98131 -1.62578
thorax -2.44967 0.997146 -0.883822
lowerneck -5.87292 -4.35282 -6.70982
upperneck 0.228527 -5.56697 9.10916
head 1.62669 -2.64673 4.01411
rclavicle -4.42296e-015 3.22031e-014
rhumerus 31.5701 10.6286 -55.5318
rradius 126.724
rwrist -3.3959
rhand -34.4809 5.4143
rfingers 7.12502
rthumb -7.64376 -24.4276
lclavicle -4.42296e-015 3.22031e-014
lhumerus -34.1321 12.9062 71.2707
lradius 22.8659
lwrist -9.63674
lhand -25.981 26.6603
lfingers 7.12502
lthumb 0.564113 56.6393
rfemur 8.65689 19.8026 17.729
rtibia 7.90294
rfoot -11.2796 -22.898
rtoes -6.25915
lfemur 7.27237 -8.6142 -19.448
ltibia 9.35835
lfoot -11.3225 17.8845
ltoes -4.3969
606
root 0.433305 18.8251 2.53525 -4.44457 -5.47052 1.41421
lowerback 4.82724 1.58113 -1.64841
upperback 0.260112 1.97477 -1.61766
thorax -2.43643 0.993868 -0.874087
lowerneck -5.88028 -4.33669 -6.72256
upperneck 0.288254 -5.5484 9.13031
head 1.64753 -2.63656 4.02487
rclavicle -8.10048e-015 1.35174e-014
rhumerus 31.4374 10.8285 -55.4819
rradius 126.802
rwrist -3.94234
rhand -34.6593 5.78655
rfingers 7.12502
rthumb -7.81594 -24.049
lclavicle -8.10048e-015 1.35174e-014
lhumerus -34.1524 12.8582 71.3818
lradius 23.0324
lwrist -9.46043
lhand -25.9684 27.0127
lfingers 7.12502
lthumb 0.576242 56.9916
rfemur 8.63824 19.8006 17.7392
rtibia 7.91767
rfoot -11.3007 -22.9197
rtoes -6.12931
lfemur 7.28187 -8.6157 -19.4341
ltibia 9.30582
lfoot -11.2021 17.8923
ltoes -4.76589
607
root 0.434786 18.8259 2.532 -4.44489 -5.47915 1.41773
lowerback 4.83714 1.57447 -1.65976
upperback 0.283612 1.96573 -1.60838
thorax -2.41852 0.989421 -0.857399
lowerneck -5.8336 -4.30995 -6.73752
upperneck 0.267042 -5.5126 9.13117
head 1.62946 -2.62002 4.03056
rclavicle -2.69726e-014 5.96354e-015
rhumerus 31.398 11.0381 -55.5216
rradius 126.935
rwrist -4.3255
rhand -34.7279 5.88969
rfingers 7.12502
rthumb -7.88216 -23.9434
lclavicle -2.69726e-014 5.96354e-015
lhumerus -34.0958 12.8273 71.4632
lradius 23.0626
lwrist -9.39942
lhand -26.1875 26.4729
lfingers 7.12502
lthumb 0.36465 56.4523
rfemur 8.60993 19.8095 17.7341
rtibia 7.94324
rfoot -11.2465 -22.9499
rtoes -6.19452
lfemur 7.29995 -8.60674 -19.4376
ltibia 9.24534
lfoot -11.1202 17.8881
ltoes -4.87865
608
root 0.437415 18.8264 2.53167 -4.44282 -5.52463 1.47857
lowerback 4.81068 1.57834 -1.72266
upperback 0.301626 1.96856 -1.60994
thorax -2.38723 0.991349 -0.822835
lowerneck -5.79369 -4.28909 -6.75559
upperneck 0.271288 -5.48501 9.10975
head 1.62092 -2.60758 4.02837
rclavicle 9.25591e-015 -1.19271e-014
rhumerus 31.3585 11.2503 -55.5677
rradius 127.043
rwrist -4.61485
rhand -34.7174 5.96779
rfingers 7.12502
rthumb -7.87202 -23.8656
lclavicle 9.25591e-015 -1.19271e-014
lhumerus -33.9844 12.7385 71.5486
lradius 22.9934
lwrist -9.3105
lhand -26.3726 25.9313
lfingers 7.12502
lthumb 0.185843 55.9109
rfemur 8.57801 19.8613 17.6547
rtibia 7.96752
rfoot -11.2455 -22.949
rtoes -6.24911
lfemur 7.32144 -8.55459 -19.5116
ltibia 9.20757
lfoot -11.1894 17.8673
ltoes -4.62804
609
root 0.437282 18.8254 2.52821 -4.47378 -5.53273 1.53034
lowerback 4.90493 1.57424 -1.81026
upperback 0.282147 1.95478 -1.61562
thorax -2.46286 0.9856 -0.782119
lowerneck -5.80664 -4.28997 -6.70509
upperneck 0.411868 -5.49523 9.035
head 1.66548 -2.61235 3.99095
rclavicle -1.38652e-014 7.95139e-015
rhumerus 31.1182 11.4968 -55.5094
rradius 127.136
rwrist -4.92858
rhand -34.9018 6.08052
rfingers 7.12502
rthumb -8.05001 -23.7462
lclavicle -1.38652e-014 7.95139e-015
lhumerus -34.0055 12.7216 71.544
lradius 23.0496
lwrist -9.33382
lhand -26.3198 25.9308
lfingers 7.12502
lthumb 0.236843 55.9104
rfemur 8.59564 19.8747 17.6096
rtibia 7.98699
rfoot -11.3252 -22.9512
rtoes -6.21109
lfemur 7.35967 -8.54332 -19.5609
ltibia 9.17531
lfoot -11.2019 17.8635
ltoes -4.60672
610
root 0.435301 18.8241 2.51893 -4.53642 -5.47394 1.49059
lowerback 5.10265 1.54499 -1.80924
upperback 0.267838 1.90957 -1.60983
thorax -2.58851 0.963454 -0.779947
lowerneck -5.85234 -4.30091 -6.60649
upperneck 0.591933 -5.52214 8.9362
head 1.72762 -2.6246 3.93428
rclavicle 2.20651e-014 -5.1684e-015
rhumerus 30.8321 11.7451 -55.4397
rradius 127.218
rwrist -5.15211
rhand -35.1698 6.08264
rfingers 7.12502
rthumb -8.30868 -23.734
lclavicle 2.20651e-014 -5.1684e-015
lhumerus -34.1147 12.729 71.5111
lradius 23.2153
lwrist -9.40885
lhand -26.3719 26.1088
lfingers 7.12502
lthumb 0.186525 56.0885
rfemur 8.63916 19.813 17.6897
rtibia 8.03046
rfoot -11.3735 -22.9554
rtoes -6.23898
lfemur 7.42292 -8.61015 -19.4955
ltibia 9.11369
lfoot -11.1055 17.877
ltoes -4.66012
